<?xml version="1.0" standalone="no"?>
<!DOCTYPE svg PUBLIC "-//W3C//DTD SVG 20010904//EN" "http://www.w3.org/TR/2001/REC-SVG-20010904/DTD/svg10.dtd">
<svg version="1.0" xmlns="http://www.w3.org/2000/svg" width="512.000000pt" height="512.000000pt"
    viewBox="0 0 512.000000 512.000000" preserveAspectRatio="xMidYMid meet">
    <metadata>
        Created by War Yankee 2022
    </metadata>
    <g transform="translate(0.000000,512.000000) scale(0.100000,-0.100000)" fill="#000000" stroke="none">
        <path d="M0 2560 l0 -2560 2560 0 2560 0 0 2560 0 2560 -2560 0 -2560 0 0
-2560z m2628 2188 c7 -15 26 -37 42 -48 18 -12 30 -31 30 -43 0 -30 11 -44 41
-56 19 -7 29 -21 39 -54 14 -53 5 -127 -16 -127 -7 0 -17 -12 -20 -26 -7 -28
0 -127 11 -144 13 -21 34 10 40 58 10 78 15 92 30 92 21 0 33 -28 40 -97 7
-57 6 -61 -20 -86 -27 -24 -28 -28 -22 -98 10 -118 44 -121 56 -5 13 124 52
114 59 -14 4 -76 3 -82 -18 -97 -20 -14 -22 -22 -18 -84 6 -112 43 -121 57
-15 13 94 42 101 60 16 13 -59 4 -110 -21 -128 -30 -22 -20 -167 12 -167 11 0
18 21 25 75 8 57 14 76 27 78 25 5 40 -34 42 -109 1 -61 -2 -70 -21 -84 -18
-13 -23 -26 -23 -63 0 -26 5 -64 11 -85 15 -54 36 -33 45 45 6 56 26 94 44 83
15 -9 30 -95 24 -134 -4 -22 -15 -48 -25 -57 -33 -30 -26 -121 17 -218 20 -44
42 -85 49 -91 15 -13 1484 -4 1504 9 10 6 5 14 -20 30 -33 21 -43 21 -689 26
-360 3 -665 10 -677 14 -12 4 -26 21 -32 36 -7 23 -18 30 -48 36 -21 4 -44 11
-50 17 -19 14 -16 92 3 111 21 21 31 13 44 -35 8 -28 19 -43 38 -51 15 -7 37
-24 49 -38 l21 -25 709 -5 c751 -5 738 -4 771 -52 8 -10 30 -26 50 -36 48 -22
67 -78 45 -132 -8 -19 -21 -39 -30 -44 -9 -5 -58 -50 -108 -100 -50 -51 -105
-98 -123 -105 -17 -7 -32 -19 -32 -26 0 -18 -48 -55 -70 -55 -11 0 -22 -12
-28 -30 -8 -21 -20 -31 -43 -38 -21 -5 -39 -19 -49 -37 -9 -16 -28 -32 -44
-36 -16 -5 -41 -23 -56 -41 -16 -19 -46 -42 -68 -53 -21 -11 -43 -28 -48 -40
-5 -11 -24 -28 -43 -37 -18 -9 -39 -27 -45 -40 -6 -13 -27 -28 -46 -34 -21 -7
-40 -22 -48 -38 -7 -14 -29 -33 -48 -41 -18 -7 -39 -25 -45 -38 -6 -13 -23
-29 -37 -35 -56 -26 -71 -37 -80 -57 -5 -11 -30 -47 -55 -80 -24 -33 -47 -74
-51 -90 -4 -18 -16 -35 -29 -40 -21 -9 -22 -16 -20 -97 2 -91 17 -168 33 -168
19 0 25 29 30 135 5 100 7 110 24 110 13 0 22 -10 28 -30 12 -45 15 -218 3
-222 -31 -11 -39 -24 -39 -70 1 -95 15 -184 31 -190 25 -10 33 17 33 109 0 95
5 118 26 118 20 0 30 -32 39 -117 9 -88 0 -130 -27 -139 -19 -6 -20 -12 -16
-113 2 -58 9 -114 14 -124 20 -35 38 8 44 104 5 87 19 124 40 103 14 -14 32
-162 24 -206 -3 -23 -11 -38 -20 -38 -20 0 -27 -42 -22 -135 10 -149 44 -150
55 -1 10 141 43 157 63 31 14 -85 5 -152 -22 -182 -18 -19 -20 -31 -16 -93 9
-117 39 -113 58 7 9 56 26 81 44 63 13 -13 24 -240 13 -275 -5 -16 -22 -43
-38 -60 -15 -16 -31 -43 -35 -58 -8 -32 -37 -47 -93 -47 -55 0 -97 17 -109 45
-7 14 -29 32 -50 41 -22 8 -44 26 -50 40 -7 13 -18 24 -26 24 -29 0 -106 40
-106 54 0 18 -30 36 -59 36 -11 0 -32 13 -48 29 -16 16 -53 41 -81 55 -29 15
-52 30 -52 35 0 18 -32 41 -57 41 -15 0 -36 12 -53 30 -16 17 -53 41 -83 54
-30 14 -56 33 -59 43 -3 11 -25 25 -56 36 -29 10 -53 25 -56 35 -6 19 -65 52
-91 52 -7 0 -23 13 -34 29 -12 16 -34 31 -50 34 -17 4 -48 24 -71 45 -26 26
-56 44 -85 51 -27 7 -48 19 -52 29 -10 27 -24 32 -90 32 -55 0 -64 -3 -79 -25
-9 -13 -26 -27 -37 -30 -67 -20 -106 -39 -110 -56 -5 -19 -31 -33 -79 -43 -18
-4 -30 -15 -33 -29 -4 -16 -20 -28 -54 -40 -27 -9 -56 -17 -65 -17 -10 0 -16
-9 -16 -23 0 -25 -23 -41 -72 -51 -19 -4 -30 -15 -34 -31 -5 -21 -17 -29 -66
-43 -44 -13 -60 -22 -64 -39 -3 -12 -19 -26 -37 -33 -70 -26 -77 -30 -77 -45
0 -15 -76 -55 -105 -55 -8 0 -20 -12 -27 -27 -9 -18 -27 -30 -59 -40 -34 -9
-48 -19 -53 -35 -3 -15 -21 -29 -50 -41 -54 -22 -89 -15 -84 16 2 17 15 26 52
38 31 9 53 23 59 36 8 19 75 53 104 53 7 0 18 12 25 27 14 28 25 35 73 49 17
5 34 19 40 31 8 19 44 37 113 59 7 2 17 15 22 29 7 18 21 28 55 36 33 8 49 18
55 34 9 23 73 55 110 55 12 0 20 7 20 17 0 26 31 53 61 53 28 0 32 3 67 49 11
14 38 28 67 36 35 8 51 18 53 31 5 25 30 44 58 44 11 0 38 15 58 34 25 25 49
37 81 42 58 8 130 -11 155 -43 10 -13 39 -31 63 -39 28 -9 47 -23 50 -35 3
-10 13 -22 24 -25 58 -19 81 -31 106 -59 15 -16 44 -34 65 -40 22 -6 41 -19
47 -32 5 -13 32 -31 68 -45 38 -15 62 -31 68 -45 4 -12 18 -24 31 -28 53 -15
78 -28 78 -42 0 -8 29 -27 65 -44 36 -16 65 -33 65 -38 0 -18 32 -41 56 -41
15 0 38 -14 58 -34 19 -18 54 -42 79 -52 25 -10 51 -29 56 -41 6 -14 25 -26
51 -33 24 -6 47 -21 57 -36 9 -14 28 -30 42 -36 23 -9 155 -38 156 -34 1 0 13
18 28 38 33 45 33 48 2 48 -34 0 -74 21 -130 70 -25 22 -53 40 -60 40 -8 0
-29 13 -47 29 -18 15 -51 38 -74 49 -22 11 -47 28 -54 37 -8 9 -35 27 -60 40
-25 13 -52 31 -60 40 -8 9 -37 28 -64 42 -28 14 -66 39 -84 54 -18 16 -39 29
-48 29 -8 0 -26 11 -40 25 -14 14 -47 36 -73 49 -26 14 -53 32 -61 41 -8 9
-35 27 -60 40 -25 13 -52 31 -60 40 -8 9 -39 29 -70 45 -31 16 -62 36 -70 45
-8 9 -33 26 -57 37 -24 11 -43 24 -43 28 0 5 -26 23 -57 41 -32 18 -68 44 -81
57 -32 34 -100 27 -145 -15 -18 -16 -45 -38 -62 -48 -16 -10 -34 -24 -38 -32
-5 -7 -35 -27 -67 -43 -32 -16 -62 -36 -67 -44 -4 -8 -29 -24 -56 -35 -26 -11
-50 -27 -53 -36 -3 -8 -33 -27 -66 -41 -32 -15 -63 -35 -69 -46 -5 -10 -26
-25 -47 -34 -20 -8 -48 -26 -62 -39 -14 -13 -46 -33 -72 -45 -26 -11 -52 -29
-58 -39 -5 -10 -28 -26 -52 -36 -23 -9 -57 -30 -75 -46 -19 -16 -50 -36 -70
-44 -20 -9 -43 -24 -50 -35 -8 -11 -31 -27 -51 -36 -20 -8 -48 -26 -62 -39
-14 -13 -44 -32 -67 -42 -23 -11 -55 -33 -71 -51 -17 -18 -39 -32 -51 -32 -11
0 -32 -5 -46 -12 -30 -14 -50 0 -60 43 -5 19 0 34 19 56 17 20 33 60 46 119
12 49 32 112 45 139 14 28 32 86 41 130 9 44 27 98 39 120 13 22 31 78 40 125
10 47 28 103 40 125 13 22 31 78 40 125 10 47 28 103 40 125 13 22 30 79 39
127 8 48 28 115 45 150 40 84 56 183 35 216 -8 13 -23 26 -33 30 -17 7 -31 17
-129 98 -20 17 -53 41 -72 54 -19 13 -52 37 -72 54 -20 17 -58 47 -83 66 -25
19 -68 53 -94 75 -27 22 -77 60 -111 85 -33 25 -78 59 -98 75 -20 17 -50 39
-67 50 -16 10 -36 27 -43 37 -7 10 -28 26 -45 35 -18 9 -43 27 -57 40 -32 31
-106 88 -144 111 -16 9 -47 34 -67 55 -21 20 -44 37 -52 37 -8 0 -22 9 -32 20
-21 23 -14 65 13 77 9 5 348 6 752 3 564 -4 743 -2 768 7 34 13 71 75 72 119
0 12 13 48 30 79 16 31 37 84 46 118 9 34 26 79 39 102 13 22 31 69 40 105 9
36 25 77 35 91 10 15 28 60 40 100 13 41 33 92 45 114 13 23 30 68 39 102 9
34 30 87 46 118 17 31 30 63 30 71 0 22 31 108 45 124 8 8 25 54 39 102 23 80
48 137 78 180 9 13 9 20 -1 32 -19 22 -36 20 -92 -11 -51 -29 -52 -32 -80
-136 -12 -48 -32 -69 -48 -51 -11 12 6 163 20 180 6 7 20 14 32 16 13 2 23 13
28 32 5 16 23 44 41 62 18 18 40 41 49 52 13 15 24 17 65 13 40 -5 51 -11 62
-33z m-313 -347 c3 -11 1 -49 -6 -86 -8 -50 -18 -74 -39 -95 -20 -21 -31 -45
-39 -94 -15 -85 -27 -116 -45 -116 -25 0 -27 17 -16 101 14 99 17 108 45 119
17 7 24 22 34 82 8 40 18 81 23 91 12 23 35 22 43 -2z m-162 -446 c-4 -80 -22
-142 -47 -158 -17 -11 -25 -32 -34 -89 -15 -85 -30 -115 -56 -105 -15 6 -17
15 -11 60 13 109 25 147 50 153 25 6 29 16 41 109 8 63 21 87 42 83 14 -3 17
-14 15 -53z m-160 -415 c-3 -78 -23 -142 -45 -148 -10 -2 -21 -16 -23 -31 -18
-89 -37 -132 -62 -142 -15 -5 -44 -25 -64 -44 -21 -19 -49 -37 -61 -40 -13 -3
-309 -6 -658 -8 -730 -4 -710 -2 -766 -80 -24 -33 -32 -52 -26 -60 6 -7 14
-32 19 -57 7 -38 14 -48 45 -62 22 -11 38 -26 42 -43 4 -16 13 -25 25 -25 11
0 43 -21 73 -46 29 -25 65 -52 79 -59 14 -8 33 -25 42 -39 9 -13 32 -29 51
-36 20 -6 38 -20 41 -31 4 -11 26 -29 50 -39 24 -10 46 -27 49 -37 3 -10 25
-27 47 -38 23 -11 53 -32 68 -48 14 -16 43 -37 64 -48 20 -11 37 -26 37 -35 0
-8 20 -23 46 -34 26 -12 48 -28 51 -40 3 -11 20 -24 39 -30 19 -6 48 -27 66
-47 18 -19 50 -43 70 -54 20 -10 39 -28 43 -39 4 -11 22 -28 42 -38 27 -13 40
-28 53 -64 10 -26 16 -48 15 -50 -2 -2 -8 -54 -14 -116 -12 -117 -23 -162 -41
-162 -21 0 -25 41 -16 151 10 130 -1 184 -39 199 -13 5 -29 21 -37 36 -8 18
-25 31 -45 36 -21 6 -38 19 -48 38 -9 17 -24 30 -34 30 -10 0 -37 18 -59 40
-23 21 -59 48 -81 59 -22 12 -42 29 -46 40 -3 11 -21 25 -40 31 -19 6 -44 25
-56 41 -11 16 -27 29 -36 29 -9 0 -30 15 -47 33 -17 18 -52 46 -78 61 -25 15
-53 37 -61 50 -8 12 -30 27 -49 32 -19 6 -38 20 -45 35 -7 13 -30 33 -51 42
-22 10 -42 26 -45 37 -3 10 -20 25 -38 33 -19 8 -68 47 -109 87 -41 39 -91 80
-111 90 -40 21 -49 45 -49 130 0 50 15 71 58 85 12 3 30 17 38 31 9 13 32 28
53 34 23 6 290 10 723 10 611 0 688 2 702 16 9 8 16 20 16 25 0 6 15 16 33 24
42 18 51 29 67 88 9 34 20 51 35 57 18 7 24 21 35 87 14 91 25 116 48 111 14
-3 17 -14 15 -58z m-643 -1945 c0 -121 -29 -198 -60 -160 -8 9 -8 35 -1 92 12
94 25 133 46 133 12 0 15 -13 15 -65z m-74 -239 c-12 -115 -27 -168 -47 -173
-22 -6 -25 -15 -39 -123 -12 -90 -21 -114 -46 -128 -10 -6 -21 -43 -34 -114
-19 -114 -24 -128 -44 -128 -21 0 -26 47 -15 129 13 89 24 121 43 121 21 0 23
5 35 109 14 110 23 131 56 131 24 0 25 2 25 73 0 110 24 182 57 170 12 -5 14
-17 9 -67z m-244 -778 c4 -135 17 -169 68 -179 18 -4 39 -15 46 -24 9 -12 17
-14 31 -7 21 12 145 31 156 25 21 -12 4 -41 -34 -56 -25 -10 -43 -24 -46 -37
-17 -65 -203 -68 -203 -4 0 9 -13 28 -28 42 -16 15 -34 42 -40 61 -15 42 -15
172 -1 226 16 62 17 65 33 65 11 0 15 -24 18 -112z" />
        <path d="M2670 4555 c-9 -24 -8 -45 7 -99 5 -19 6 -19 19 -1 19 25 18 99 -1
115 -12 10 -16 8 -25 -15z" />
        <path d="M4730 2943 c-14 -9 -43 -32 -64 -50 -22 -18 -45 -33 -52 -33 -7 0
-22 -13 -33 -29 -11 -15 -33 -34 -49 -40 -16 -7 -39 -25 -51 -42 -12 -16 -28
-29 -35 -29 -7 0 -21 -10 -32 -21 -10 -12 -41 -38 -69 -59 -27 -20 -65 -51
-84 -69 -18 -17 -39 -31 -46 -31 -7 0 -25 -16 -39 -35 -15 -19 -34 -35 -42
-35 -8 0 -28 -14 -43 -31 -16 -17 -40 -38 -54 -47 -14 -10 -57 -44 -97 -77
-39 -33 -89 -72 -111 -86 -22 -15 -49 -38 -60 -53 -11 -14 -26 -26 -33 -26 -6
0 -28 -15 -48 -32 -20 -18 -48 -41 -62 -51 -22 -15 -26 -25 -25 -65 1 -69 30
-146 57 -150 18 -3 24 5 38 55 9 32 25 65 37 74 11 9 25 32 31 50 8 25 19 36
42 43 21 6 37 20 45 40 10 21 24 33 47 38 21 6 36 17 42 33 5 13 25 31 43 39
19 7 41 24 50 36 9 13 33 34 55 49 22 14 53 41 70 59 16 17 40 32 52 32 14 0
24 9 31 30 8 23 20 32 50 40 29 8 40 17 45 36 4 17 19 30 45 41 21 8 41 23 44
33 3 10 26 30 51 45 24 14 58 41 75 60 17 18 41 36 54 39 13 3 30 18 37 33 8
16 27 31 48 38 23 8 36 19 40 36 5 20 22 35 61 51 16 7 19 47 4 62 -21 20 -34
20 -65 -1z" />
    </g>
</svg>